<svg width="49" height="55" viewBox="0 0 49 55" fill="none" xmlns="http://www.w3.org/2000/svg">
<path d="M3.675 24C1.64536 24 -0.0293198 22.3447 0.286499 20.3398C1.07568 15.3298 3.47136 10.6584 7.17589 7.02944C11.7705 2.52857 18.0022 4.80559e-07 24.5 0C30.9978 -4.80559e-07 37.2295 2.52856 41.8241 7.02944C45.5286 10.6584 47.9243 15.3298 48.7135 20.3398C49.0293 22.3447 47.3546 24 45.325 24C43.2954 24 41.6907 22.3347 41.2416 20.3553C40.5395 17.2607 38.9512 14.3975 36.6269 12.1206C33.4106 8.96999 29.0485 7.2 24.5 7.2C19.9515 7.2 15.5894 8.97 12.3731 12.1206C10.0488 14.3975 8.46053 17.2607 7.75839 20.3553C7.3093 22.3347 5.70465 24 3.675 24Z" fill="#3C3C43" fill-opacity="0.18"/>
<path d="M3.675 24C1.64536 24 -0.0292511 22.3448 0.286579 20.3399C0.747707 17.4126 1.75977 14.5834 3.28238 12C4.83415 9.36711 6.87674 7.05645 9.29334 5.18246C10.8526 3.9733 13.0528 4.57753 14.0547 6.27742C15.0822 8.02077 14.4454 10.2438 12.937 11.5928C11.6425 12.7505 10.5314 14.1006 9.64767 15.6C8.77076 17.0879 8.13576 18.6922 7.75843 20.3554C7.30939 22.3347 5.70465 24 3.675 24Z" fill="#34C759"/>
<circle cx="24.7642" cy="23.7642" r="12.6383" transform="rotate(60 24.7642 23.7642)" fill="#F1E1D0"/>
<rect x="19.1597" y="13.291" width="6.12766" height="1.53191" rx="0.765957" transform="rotate(60 19.1597 13.291)" fill="#84B288"/>
<path d="M22.1647 47V45.394H18.3888V44.5132C18.6 44.1623 18.8149 43.8078 19.0333 43.4497C19.2517 43.0881 19.4719 42.7282 19.694 42.3701C19.9195 42.0085 20.1451 41.6504 20.3707 41.2959C20.5963 40.9414 20.8201 40.5923 21.0421 40.2485C21.2677 39.9048 21.4897 39.5718 21.7081 39.2495H23.11V44.5293H24.211V45.394H23.11V47H22.1647ZM19.3771 44.5347H22.17V40.1465H22.1056C21.9301 40.4079 21.7511 40.68 21.5685 40.9629C21.3858 41.2422 21.1996 41.5286 21.0099 41.8223C20.8237 42.1159 20.6375 42.4113 20.4513 42.7085C20.2651 43.0057 20.0807 43.3029 19.8981 43.6001C19.719 43.8937 19.5454 44.1838 19.3771 44.4702V44.5347ZM27.8501 47.1826C27.3703 47.1826 26.9424 47.0877 26.5664 46.8979C26.1904 46.7082 25.8879 46.4504 25.6587 46.1245C25.4331 45.7951 25.3006 45.4245 25.2612 45.0127L25.2559 44.9536H26.1851L26.1904 44.9966C26.2227 45.2437 26.3122 45.4692 26.459 45.6733C26.6094 45.8739 26.8045 46.0332 27.0444 46.1514C27.2879 46.2695 27.5601 46.3286 27.8608 46.3286C28.2046 46.3286 28.5072 46.2534 28.7686 46.103C29.03 45.9491 29.2341 45.7378 29.3809 45.4692C29.5277 45.2007 29.6011 44.8927 29.6011 44.5454V44.5347C29.6011 44.1909 29.5259 43.8866 29.3755 43.6216C29.2287 43.353 29.0264 43.1436 28.7686 42.9932C28.5107 42.8428 28.2135 42.7676 27.877 42.7676C27.6191 42.7676 27.381 42.807 27.1626 42.8857C26.9478 42.9645 26.7562 43.0827 26.5879 43.2402C26.5199 43.3047 26.4554 43.3745 26.3945 43.4497C26.3372 43.5249 26.2835 43.609 26.2334 43.7021H25.3955L25.8037 39.2495H30.1167V40.1143H26.5664L26.3032 42.7354H26.3892C26.5037 42.5599 26.6452 42.4131 26.8135 42.2949C26.9818 42.1768 27.1698 42.0872 27.3774 42.0264C27.5887 41.9619 27.8107 41.9297 28.0435 41.9297C28.5304 41.9297 28.9619 42.0425 29.3379 42.2681C29.7139 42.4901 30.0093 42.7962 30.2241 43.1865C30.439 43.5732 30.5464 44.0173 30.5464 44.5186V44.5293C30.5464 45.0485 30.43 45.5086 30.1973 45.9097C29.9681 46.3071 29.6512 46.6187 29.2466 46.8442C28.842 47.0698 28.3765 47.1826 27.8501 47.1826Z" fill="white"/>
<path d="M4.14645 50.2587C3.95118 50.454 3.95118 50.7705 4.14645 50.9658L7.32843 54.1478C7.52369 54.343 7.84027 54.343 8.03553 54.1478C8.2308 53.9525 8.2308 53.6359 8.03553 53.4407L5.20711 50.6122L8.03553 47.7838C8.2308 47.5886 8.2308 47.272 8.03553 47.0767C7.84027 46.8814 7.52369 46.8814 7.32843 47.0767L4.14645 50.2587ZM44.8536 50.9658C45.0488 50.7705 45.0488 50.454 44.8536 50.2587L41.6716 47.0767C41.4763 46.8815 41.1597 46.8815 40.9645 47.0767C40.7692 47.272 40.7692 47.5886 40.9645 47.7838L43.7929 50.6122L40.9645 53.4407C40.7692 53.6359 40.7692 53.9525 40.9645 54.1478C41.1597 54.343 41.4763 54.343 41.6716 54.1478L44.8536 50.9658ZM4.5 51.1122L44.5 51.1122L44.5 50.1122L4.5 50.1122L4.5 51.1122Z" fill="#F1E1D0"/>
</svg>
