<svg width="49" height="55" viewBox="0 0 49 55" fill="none" xmlns="http://www.w3.org/2000/svg">
<path d="M3.675 24C1.64536 24 -0.0293198 22.3447 0.286499 20.3398C1.07568 15.3298 3.47136 10.6584 7.17589 7.02944C11.7705 2.52857 18.0022 4.80559e-07 24.5 0C30.9978 -4.80559e-07 37.2295 2.52856 41.8241 7.02944C45.5286 10.6584 47.9243 15.3298 48.7135 20.3398C49.0293 22.3447 47.3546 24 45.325 24C43.2954 24 41.6907 22.3347 41.2416 20.3553C40.5395 17.2607 38.9512 14.3975 36.6269 12.1206C33.4106 8.96999 29.0485 7.2 24.5 7.2C19.9515 7.2 15.5894 8.97 12.3731 12.1206C10.0488 14.3975 8.46053 17.2607 7.75839 20.3553C7.3093 22.3347 5.70465 24 3.675 24Z" fill="#3C3C43" fill-opacity="0.18"/>
<path d="M3.675 24C1.64536 24 -0.0293185 22.3447 0.2865 20.3398C1.07568 15.3298 3.47135 10.6584 7.17589 7.02944C11.7705 2.52857 18.0022 4.80559e-07 24.5 0C30.9978 -4.80559e-07 37.2295 2.52856 41.8241 7.02944C45.5286 10.6584 47.9243 15.3298 48.7135 20.3398C49.0293 22.3447 47.3546 24 45.325 24V24C43.2954 24 41.6907 22.3347 41.2416 20.3553C40.5395 17.2607 38.9512 14.3975 36.6269 12.1206C33.4106 8.96999 29.0485 7.2 24.5 7.2C19.9515 7.2 15.5894 8.97 12.3731 12.1206C10.0488 14.3975 8.46053 17.2607 7.75839 20.3553C7.3093 22.3347 5.70465 24 3.675 24V24Z" fill="#FF3B30"/>
<path d="M3.675 24C1.64536 24 -0.0292515 22.3448 0.28658 20.3399C0.74784 17.4118 1.76035 14.5818 3.28366 11.9978C5.43481 8.34885 8.52877 5.31898 12.2544 3.21288C15.9801 1.10678 20.2062 -0.00132285 24.5077 1.18481e-06C27.5716 0.000944291 30.597 0.564745 33.4301 1.65104C35.3196 2.37554 35.9155 4.65009 34.8872 6.39304V6.39304C33.8846 8.0925 31.7097 8.6341 29.8306 8.03214C28.1185 7.48366 26.3216 7.20056 24.5054 7.2C21.4943 7.19907 18.5361 7.97474 15.9281 9.44901C13.3201 10.9233 11.1544 13.0442 9.64857 15.5985C8.77119 17.0868 8.13589 18.6916 7.75844 20.3554C7.30939 22.3347 5.70465 24 3.675 24V24Z" fill="#FFCC00"/>
<path d="M3.675 24C1.64536 24 -0.0292515 22.3448 0.28658 20.3399C0.747709 17.4126 1.75977 14.5834 3.28238 12C4.83415 9.36711 6.87674 7.05645 9.29334 5.18246C10.8526 3.9733 13.0528 4.57753 14.0547 6.27742V6.27742C15.0822 8.02077 14.4454 10.2438 12.937 11.5928C11.6425 12.7505 10.5314 14.1006 9.64767 15.6C8.77076 17.0879 8.13576 18.6922 7.75844 20.3554C7.30939 22.3347 5.70465 24 3.675 24V24Z" fill="#34C759"/>
<circle cx="24.7642" cy="23.7642" r="12.6383" transform="rotate(-180 24.7642 23.7642)" fill="#F1E1D0"/>
<rect x="36.6365" y="24.1472" width="6.12766" height="1.53191" rx="0.765957" transform="rotate(-180 36.6365 24.1472)" fill="#84B288"/>
<path d="M18.2611 47V40.3237H18.1752L16.204 41.7524V40.7319L18.2665 39.2495H19.2279V47H18.2611ZM23.7049 47.1289C23.1714 47.1289 22.7059 47.0376 22.3084 46.855C21.9109 46.6724 21.5958 46.4217 21.3631 46.103C21.1339 45.7843 21.0014 45.4209 20.9656 45.0127L20.9603 44.9482H21.8895L21.8948 45.002C21.9199 45.2562 22.0094 45.48 22.1634 45.6733C22.3209 45.8667 22.5304 46.0189 22.7918 46.1299C23.0568 46.2373 23.3611 46.291 23.7049 46.291C24.0451 46.291 24.3423 46.2319 24.5965 46.1138C24.8543 45.9956 25.0548 45.8327 25.1981 45.625C25.3413 45.4137 25.4129 45.172 25.4129 44.8999V44.8892C25.4129 44.4129 25.2536 44.0477 24.9349 43.7935C24.6198 43.5356 24.1901 43.4067 23.6458 43.4067H22.6736V42.5903H23.6028C23.9108 42.5903 24.1829 42.533 24.4192 42.4185C24.6556 42.3003 24.84 42.141 24.9725 41.9404C25.105 41.7363 25.1712 41.5054 25.1712 41.2476V41.2368C25.1712 40.9647 25.1139 40.7337 24.9993 40.5439C24.8847 40.3542 24.7164 40.2091 24.4944 40.1089C24.276 40.0086 24.0092 39.9585 23.6941 39.9585C23.3898 39.9585 23.1176 40.0104 22.8777 40.1143C22.6414 40.2145 22.4516 40.3595 22.3084 40.5493C22.1652 40.7391 22.0792 40.9647 22.0506 41.2261L22.0452 41.2798H21.116L21.1214 41.2261C21.1644 40.8035 21.2968 40.4347 21.5189 40.1196C21.7444 39.8045 22.0416 39.5592 22.4105 39.3838C22.7829 39.2083 23.2107 39.1206 23.6941 39.1206C24.1883 39.1206 24.618 39.2065 24.9832 39.3784C25.352 39.5467 25.6367 39.7812 25.8372 40.082C26.0413 40.3792 26.1434 40.7248 26.1434 41.1187V41.1294C26.1434 41.4481 26.0735 41.731 25.9339 41.978C25.7942 42.2251 25.6009 42.431 25.3538 42.5957C25.1067 42.7604 24.8221 42.8768 24.4998 42.9448V42.9663C25.0656 43.0129 25.5221 43.2044 25.8694 43.541C26.2204 43.874 26.3958 44.3162 26.3958 44.8677V44.8784C26.3958 45.3081 26.2794 45.693 26.0467 46.0332C25.8139 46.3734 25.4953 46.6419 25.0906 46.8389C24.686 47.0322 24.2241 47.1289 23.7049 47.1289ZM30.1101 47.1826C29.6302 47.1826 29.2023 47.0877 28.8264 46.8979C28.4504 46.7082 28.1478 46.4504 27.9187 46.1245C27.6931 45.7951 27.5606 45.4245 27.5212 45.0127L27.5158 44.9536H28.445L28.4504 44.9966C28.4826 45.2437 28.5721 45.4692 28.719 45.6733C28.8693 45.8739 29.0645 46.0332 29.3044 46.1514C29.5479 46.2695 29.82 46.3286 30.1208 46.3286C30.4646 46.3286 30.7671 46.2534 31.0285 46.103C31.2899 45.9491 31.494 45.7378 31.6408 45.4692C31.7876 45.2007 31.861 44.8927 31.861 44.5454V44.5347C31.861 44.1909 31.7858 43.8866 31.6355 43.6216C31.4886 43.353 31.2863 43.1436 31.0285 42.9932C30.7707 42.8428 30.4735 42.7676 30.1369 42.7676C29.8791 42.7676 29.641 42.807 29.4226 42.8857C29.2077 42.9645 29.0162 43.0827 28.8479 43.2402C28.7798 43.3047 28.7154 43.3745 28.6545 43.4497C28.5972 43.5249 28.5435 43.609 28.4934 43.7021H27.6555L28.0637 39.2495H32.3767V40.1143H28.8264L28.5632 42.7354H28.6491C28.7637 42.5599 28.9051 42.4131 29.0734 42.2949C29.2417 42.1768 29.4297 42.0872 29.6374 42.0264C29.8487 41.9619 30.0707 41.9297 30.3034 41.9297C30.7904 41.9297 31.2219 42.0425 31.5979 42.2681C31.9738 42.4901 32.2692 42.7962 32.4841 43.1865C32.6989 43.5732 32.8064 44.0173 32.8064 44.5186V44.5293C32.8064 45.0485 32.69 45.5086 32.4572 45.9097C32.2281 46.3071 31.9112 46.6187 31.5065 46.8442C31.1019 47.0698 30.6364 47.1826 30.1101 47.1826Z" fill="white"/>
<path d="M4.14645 50.2587C3.95118 50.454 3.95118 50.7705 4.14645 50.9658L7.32843 54.1478C7.52369 54.343 7.84027 54.343 8.03553 54.1478C8.2308 53.9525 8.2308 53.6359 8.03553 53.4407L5.20711 50.6122L8.03553 47.7838C8.2308 47.5886 8.2308 47.272 8.03553 47.0767C7.84027 46.8814 7.52369 46.8814 7.32843 47.0767L4.14645 50.2587ZM44.8536 50.9658C45.0488 50.7705 45.0488 50.454 44.8536 50.2587L41.6716 47.0767C41.4763 46.8815 41.1597 46.8815 40.9645 47.0767C40.7692 47.272 40.7692 47.5886 40.9645 47.7838L43.7929 50.6122L40.9645 53.4407C40.7692 53.6359 40.7692 53.9525 40.9645 54.1478C41.1597 54.343 41.4763 54.343 41.6716 54.1478L44.8536 50.9658ZM4.5 51.1122L44.5 51.1122L44.5 50.1122L4.5 50.1122L4.5 51.1122Z" fill="#F1E1D0"/>
</svg>
