<svg width="49" height="55" viewBox="0 0 49 55" fill="none" xmlns="http://www.w3.org/2000/svg">
<path d="M3.675 24C1.64536 24 -0.0293198 22.3447 0.286499 20.3398C1.07568 15.3298 3.47136 10.6584 7.17589 7.02944C11.7705 2.52857 18.0022 4.80559e-07 24.5 0C30.9978 -4.80559e-07 37.2295 2.52856 41.8241 7.02944C45.5286 10.6584 47.9243 15.3298 48.7135 20.3398C49.0293 22.3447 47.3546 24 45.325 24C43.2954 24 41.6907 22.3347 41.2416 20.3553C40.5395 17.2607 38.9512 14.3975 36.6269 12.1206C33.4106 8.96999 29.0485 7.2 24.5 7.2C19.9515 7.2 15.5894 8.97 12.3731 12.1206C10.0488 14.3975 8.46053 17.2607 7.75839 20.3553C7.3093 22.3347 5.70465 24 3.675 24Z" fill="#3C3C43" fill-opacity="0.18"/>
<path d="M3.675 24C1.64536 24 -0.0292511 22.3448 0.286579 20.3399C0.747841 17.4118 1.76035 14.5818 3.28366 11.9978C5.43481 8.34885 8.52877 5.31898 12.2544 3.21288C15.9801 1.10678 20.2062 -0.00132285 24.5077 1.18481e-06C27.5716 0.000944291 30.597 0.564745 33.4301 1.65104C35.3196 2.37554 35.9155 4.65009 34.8872 6.39304C33.8846 8.0925 31.7097 8.6341 29.8306 8.03214C28.1185 7.48366 26.3216 7.20056 24.5054 7.2C21.4943 7.19907 18.5361 7.97474 15.9281 9.44901C13.3201 10.9233 11.1544 13.0442 9.64857 15.5985C8.77119 17.0868 8.13589 18.6916 7.75843 20.3554C7.30939 22.3347 5.70465 24 3.675 24Z" fill="#FFCC00"/>
<path d="M3.675 24C1.64536 24 -0.0292511 22.3448 0.286579 20.3399C0.747707 17.4126 1.75977 14.5834 3.28238 12C4.83415 9.36711 6.87674 7.05645 9.29334 5.18246C10.8526 3.9733 13.0528 4.57753 14.0547 6.27742C15.0822 8.02077 14.4454 10.2438 12.937 11.5928C11.6425 12.7505 10.5314 14.1006 9.64767 15.6C8.77076 17.0879 8.13576 18.6922 7.75843 20.3554C7.30939 22.3347 5.70465 24 3.675 24Z" fill="#34C759"/>
<circle cx="24.7642" cy="23.7642" r="12.6383" transform="rotate(120 24.7642 23.7642)" fill="#F1E1D0"/>
<rect x="31.0321" y="13.674" width="6.12766" height="1.53191" rx="0.765957" transform="rotate(120 31.0321 13.674)" fill="#84B288"/>
<path d="M21.1334 39.0669C21.4879 39.0669 21.837 39.1349 22.1808 39.271C22.5281 39.4071 22.8414 39.6273 23.1207 39.9316C23.4036 40.236 23.6292 40.6388 23.7975 41.1401C23.9658 41.6379 24.0499 42.252 24.0499 42.9824V42.9932C24.0499 43.874 23.9317 44.6278 23.6954 45.2544C23.4591 45.8774 23.1189 46.3555 22.6749 46.6885C22.2309 47.0179 21.6956 47.1826 21.069 47.1826C20.6357 47.1826 20.2436 47.1038 19.8927 46.9463C19.5454 46.7852 19.2553 46.5614 19.0226 46.2749C18.7898 45.9884 18.6287 45.6554 18.5392 45.2759L18.5231 45.2061H19.4952L19.5167 45.2651C19.5955 45.48 19.7065 45.6662 19.8497 45.8237C19.9965 45.9813 20.172 46.103 20.3761 46.189C20.5838 46.2749 20.8183 46.3179 21.0797 46.3179C21.5488 46.3179 21.9301 46.1818 22.2237 45.9097C22.5174 45.634 22.7358 45.2687 22.879 44.814C23.0222 44.3592 23.1028 43.8633 23.1207 43.3262C23.1243 43.276 23.1261 43.2277 23.1261 43.1812C23.1261 43.131 23.1261 43.0827 23.1261 43.0361L22.8951 41.7471C22.8951 41.4069 22.8163 41.099 22.6588 40.8232C22.5048 40.5475 22.2954 40.3291 22.0304 40.168C21.769 40.0033 21.4736 39.9209 21.1441 39.9209C20.8219 39.9209 20.5283 40.0015 20.2633 40.1626C19.9983 40.3201 19.787 40.535 19.6295 40.8071C19.4719 41.0757 19.3932 41.3783 19.3932 41.7148V41.7256C19.3932 42.0693 19.4684 42.3755 19.6188 42.644C19.7691 42.909 19.975 43.1185 20.2364 43.2725C20.4978 43.4229 20.795 43.498 21.128 43.498C21.4646 43.498 21.7654 43.4229 22.0304 43.2725C22.2954 43.1221 22.5048 42.9162 22.6588 42.6548C22.8163 42.3898 22.8951 42.089 22.8951 41.7524V41.7471H23.212V43.1436H23.024C22.9309 43.3548 22.7877 43.5518 22.5943 43.7344C22.4046 43.917 22.1718 44.0638 21.8961 44.1748C21.624 44.2858 21.3124 44.3413 20.9615 44.3413C20.4781 44.3413 20.0449 44.2285 19.6617 44.0029C19.2786 43.7773 18.976 43.4694 18.754 43.0791C18.532 42.6852 18.421 42.2412 18.421 41.7471V41.7363C18.421 41.2207 18.5374 40.7624 18.7701 40.3613C19.0065 39.9567 19.3287 39.6398 19.7369 39.4106C20.1487 39.1815 20.6142 39.0669 21.1334 39.0669ZM27.7964 47.1826C27.2235 47.1826 26.7329 47.0179 26.3247 46.6885C25.9201 46.359 25.6086 45.8918 25.3901 45.2866C25.1717 44.6779 25.0625 43.9582 25.0625 43.1274V43.1167C25.0625 42.286 25.1717 41.568 25.3901 40.9629C25.6086 40.3577 25.9201 39.8905 26.3247 39.561C26.7329 39.2316 27.2235 39.0669 27.7964 39.0669C28.3693 39.0669 28.8599 39.2316 29.2681 39.561C29.6763 39.8905 29.9896 40.3577 30.208 40.9629C30.43 41.568 30.541 42.286 30.541 43.1167V43.1274C30.541 43.9582 30.43 44.6779 30.208 45.2866C29.9896 45.8918 29.6763 46.359 29.2681 46.6885C28.8599 47.0179 28.3693 47.1826 27.7964 47.1826ZM27.7964 46.3394C28.1688 46.3394 28.4857 46.2087 28.7471 45.9473C29.012 45.6859 29.2144 45.3153 29.354 44.8354C29.4972 44.3556 29.5689 43.7863 29.5689 43.1274V43.1167C29.5689 42.4578 29.4972 41.8903 29.354 41.4141C29.2144 40.9342 29.012 40.5654 28.7471 40.3076C28.4857 40.0462 28.1688 39.9155 27.7964 39.9155C27.4276 39.9155 27.1107 40.0462 26.8457 40.3076C26.5843 40.5654 26.3838 40.9342 26.2441 41.4141C26.1045 41.8903 26.0347 42.4578 26.0347 43.1167V43.1274C26.0347 43.7863 26.1045 44.3556 26.2441 44.8354C26.3838 45.3153 26.5843 45.6859 26.8457 45.9473C27.1107 46.2087 27.4276 46.3394 27.7964 46.3394Z" fill="white"/>
<path d="M4.14645 50.2587C3.95118 50.454 3.95118 50.7705 4.14645 50.9658L7.32843 54.1478C7.52369 54.343 7.84027 54.343 8.03553 54.1478C8.2308 53.9525 8.2308 53.6359 8.03553 53.4407L5.20711 50.6122L8.03553 47.7838C8.2308 47.5886 8.2308 47.272 8.03553 47.0767C7.84027 46.8814 7.52369 46.8814 7.32843 47.0767L4.14645 50.2587ZM44.8536 50.9658C45.0488 50.7705 45.0488 50.454 44.8536 50.2587L41.6716 47.0767C41.4763 46.8815 41.1597 46.8815 40.9645 47.0767C40.7692 47.272 40.7692 47.5886 40.9645 47.7838L43.7929 50.6122L40.9645 53.4407C40.7692 53.6359 40.7692 53.9525 40.9645 54.1478C41.1597 54.343 41.4763 54.343 41.6716 54.1478L44.8536 50.9658ZM4.5 51.1122L44.5 51.1122L44.5 50.1122L4.5 50.1122L4.5 51.1122Z" fill="#F1E1D0"/>
</svg>
